Coordinates
version=1
nRows=22
nColumns=24
inDegrees=yes

Units are S.I. units (second, meters, Newtons, ...)
If the header above contains a line with 'inDegrees', this indicates whether rotational values are in degrees (yes) or radians (no).

endheader
time	pelvis_tilt	pelvis_list	pelvis_rotation	pelvis_tx	pelvis_ty	pelvis_tz	hip_flexion_r	hip_adduction_r	hip_rotation_r	knee_angle_r	ankle_angle_r	subtalar_angle_r	mtp_angle_r	hip_flexion_l	hip_adduction_l	hip_rotation_l	knee_angle_l	ankle_angle_l	subtalar_angle_l	mtp_angle_l	lumbar_extension	lumbar_bending	lumbar_rotation
      2.06000000	      9.13990943	      6.36625802	     10.27575348	     -0.02383168	      0.90100298	     -0.29109087	     17.09138618	     -7.20640161	    -14.56434026	     -8.62054676	      0.03889511	     -1.05788707	      0.00000000	    -25.59326562	      3.58799926	      3.83042777	    -15.92115253	     14.15811018	      9.20967537	      0.00000000	    -18.75640968	     -7.08055810	    -15.64732428
      2.06500000	      9.28969898	      6.24451361	     10.32162755	     -0.01628175	      0.90041129	     -0.29095753	     17.17146889	     -7.09725363	    -14.76976467	     -9.74350369	     -0.74650263	     -1.14781441	      0.00000000	    -25.68891074	      3.30915192	      3.72221069	    -16.87798724	     13.78546991	      9.22527251	      0.00000000	    -18.87108405	     -6.78984788	    -15.58789228
      2.07000000	      9.42630328	      6.03307472	     10.38136441	     -0.00859115	      0.89986817	     -0.29064935	     17.21623071	     -6.85869553	    -14.88644752	    -10.76486545	     -1.72073198	     -1.69994586	      0.00000000	    -25.70170443	      2.90875962	      3.47981146	    -17.92827410	     13.41925673	      9.34349115	      0.00000000	    -18.93295991	     -6.42666411	    -15.47944099
      2.07500000	      9.57581725	      5.81633181	     10.40523784	     -0.00087938	      0.89938776	     -0.29027329	     17.25800727	     -6.60832142	    -14.95549248	    -11.79952606	     -2.70256709	     -2.09537218	      0.00000000	    -25.69456808	      2.51209220	      3.17712366	    -19.02290957	     12.94552331	      9.48994448	      0.00000000	    -19.01188411	     -6.07243782	    -15.37278915
      2.08000000	      9.73770071	      5.56800320	     10.41661729	      0.00686696	      0.89897387	     -0.28981116	     17.27783318	     -6.30938270	    -14.96741060	    -12.80816388	     -3.67973271	     -2.54642450	      0.00000000	    -25.64700730	      2.07293786	      2.79534246	    -20.18796631	     12.37993030	      9.66460983	      0.00000000	    -19.08913390	     -5.68325481	    -15.24342669
      2.08500000	      9.90722342	      5.28433314	     10.41597727	      0.01465721	      0.89862968	     -0.28925046	     17.28256368	     -5.95594523	    -14.92478560	    -13.79550424	     -4.60877740	     -3.04048942	      0.00000000	    -25.55672042	      1.58678003	      2.34005193	    -21.41422907	     11.70611486	      9.87314479	      0.00000000	    -19.16628632	     -5.27155147	    -15.09150296
      2.09000000	     10.08441272	      4.96919290	     10.40464011	      0.02247837	      0.89834567	     -0.28859117	     17.27730439	     -5.55444544	    -14.83488476	    -14.77424552	     -5.43663977	     -3.55467467	      0.00000000	    -25.42051601	      1.05366485	      1.81528109	    -22.70441508	     10.90739442	     10.10222178	      0.00000000	    -19.24587077	     -4.83770094	    -14.92233963
      2.09500000	     10.26900481	      4.62264171	     10.38366177	      0.03032729	      0.89811871	     -0.28783584	     17.26443456	     -5.10379244	    -14.69715517	    -15.75376806	     -6.13542579	     -4.10807971	      0.00000000	    -25.23944478	      0.47224967	      1.22918805	    -24.05413577	      9.97713209	     10.35330053	      0.00000000	    -19.32763361	     -4.38694197	    -14.73229271
      2.10000000	     10.46060007	      4.24846420	     10.35204142	      0.03822568	      0.89794307	     -0.28701134	     17.24598287	     -4.61372774	    -14.54019901	    -16.74748117	     -6.65255196	     -4.63736810	      0.00000000	    -25.01868922	     -0.15297506	      0.58986843	    -25.45409911	      8.88060752	     10.59379765	      0.00000000	    -19.40359120	     -3.92840440	    -14.54272395
      2.10500000	     10.66001153	      3.85541413	     10.31701279	      0.04607937	      0.89781662	     -0.28610430	     17.21079221	     -4.08117246	    -14.30646051	    -17.72890885	     -6.99386688	     -5.25097712	      0.00000000	    -24.73841287	     -0.81582983	     -0.07119656	    -26.93476513	      7.63296741	     10.85356549	      0.00000000	    -19.49269874	     -3.42246010	    -14.31567736
      2.11000000	     10.86628436	      3.44236875	     10.28207605	      0.05398091	      0.89773287	     -0.28515195	     17.16989682	     -3.52233440	    -14.08395293	    -18.74218176	     -7.09729964	     -5.78553220	      0.00000000	    -24.42378807	     -1.51911367	     -0.75112263	    -28.45003654	      6.20234043	     11.05487869	      0.00000000	    -19.58098960	     -2.92983682	    -14.11423959
      2.11500000	     11.07835074	      3.00899335	     10.25563885	      0.06185558	      0.89767336	     -0.28411047	     17.11921914	     -2.92058532	    -13.81729542	    -19.76708848	     -6.99104528	     -6.40632950	      0.00000000	    -24.05667599	     -2.26854266	     -1.41557312	    -30.02322790	      4.63040143	     11.23157031	      0.00000000	    -19.68633257	     -2.40950055	    -13.86891267
      2.12000000	     11.29337863	      2.56677627	     10.21930815	      0.06974768	      0.89765017	     -0.28306193	     17.05407793	     -2.30544415	    -13.57098275	    -20.79400261	     -6.70154674	     -6.91386870	      0.00000000	    -23.65106283	     -3.03361631	     -2.07072665	    -31.63047632	      2.87652697	     11.32289368	      0.00000000	    -19.78376494	     -1.90190870	    -13.66338938
      2.12500000	     11.51166094	      2.12233414	     10.19494519	      0.07760294	      0.89764644	     -0.28198553	     16.97566240	     -1.67815741	    -13.32189657	    -21.83061755	     -6.21851565	     -7.39633912	      0.00000000	    -23.19690532	     -3.81817002	     -2.67629350	    -33.27970144	      0.98794447	     11.33830844	      0.00000000	    -19.89448957	     -1.39357676	    -13.45862683
      2.13000000	     11.72392807	      1.67006581	     10.16670524	      0.08543124	      0.89765706	     -0.28090394	     16.88149279	     -1.03065729	    -13.06779015	    -22.84090328	     -5.62323043	     -7.88958148	      0.00000000	    -22.68756151	     -4.61290098	     -3.23929572	    -34.96723648	     -1.01858630	     11.25233782	      0.00000000	    -19.99503550	     -0.87538888	    -13.21894422
      2.13500000	     11.93305238	      1.22463822	     10.14535997	      0.09320557	      0.89767999	     -0.27983635	     16.76847901	     -0.38683253	    -12.83590681	    -23.83069080	     -4.89515174	     -8.31108997	      0.00000000	    -22.12732016	     -5.40311699	     -3.72948077	    -36.68576322	     -3.11374378	     11.06729520	      0.00000000	    -20.09994269	     -0.36850978	    -12.99976413
      2.14000000	     12.12548849	      0.78188544	     10.12473512	      0.10092743	      0.89770569	     -0.27880994	     16.64536798	      0.25579648	    -12.62040613	    -24.78202634	     -4.10734084	     -8.68448310	      0.00000000	    -21.50391462	     -6.17756117	     -4.13867538	    -38.43092954	     -5.25727905	     10.73151804	      0.00000000	    -20.19193047	      0.13744271	    -12.76074671
      2.14500000	     12.29488098	      0.35017409	     10.10997805	      0.10857858	      0.89773124	     -0.27783089	     16.51378393	      0.88445404	    -12.42719134	    -25.68536083	     -3.25695299	     -8.98709325	      0.00000000	    -20.80860683	     -6.92309426	     -4.44961411	    -40.20189222	     -7.40577790	     10.23470588	      0.00000000	    -20.26866689	      0.62903748	    -12.51606633
      2.15000000	     12.44954861	     -0.06831346	     10.09512133	      0.11615579	      0.89776906	     -0.27695924	     16.36403696	      1.48731098	    -12.28328944	    -26.53762869	     -2.37212589	     -9.19859928	      0.00000000	    -20.05730261	     -7.62714436	     -4.66902311	    -41.98600930	     -9.50655488	      9.63710596	      0.00000000	    -20.33289365	      1.11892099	    -12.29233643
      2.15500000	     12.56202937	     -0.46556288	     10.08668444	      0.12362774	      0.89779814	     -0.27617937	     16.21635028	      2.05784735	    -12.15854742	    -27.31589996	     -1.46698214	     -9.32274713	      0.00000000	    -19.21104825	     -8.26964664	     -4.77178142	    -43.79536100	    -11.49811288	      8.82866510	      0.00000000	    -20.36553092	      1.58873014	    -12.05488326
      2.16000000	     12.58550356	     -0.80154867	     10.05956303	      0.13096658	      0.89774218	     -0.27553625	     16.14681478	      2.53138336	    -12.05055457	    -28.08369052	     -0.46661533	     -9.34465965	      0.00000000	    -18.22773837	     -8.77021304	     -4.75038273	    -45.62796656	    -13.28172527	      7.72249933	      0.00000000	    -20.32540059	      1.99535040	    -11.81807751
      2.16500000	     12.61409153	     -1.14198295	     10.03885672	      0.13823907	      0.89775049	     -0.27496511	     16.01558271	      3.00702944	    -11.98941145	    -28.74260659	      0.45881370	     -9.26522318	      0.00000000	    -17.21416094	     -9.25588762	     -4.67148336	    -47.45501635	    -14.89573083	      6.67042992	      0.00000000	    -20.29388964	      2.40073419	    -11.61400509
